PathFileType	3	(X/Y/Z)	D:\minhoCalibration\240510\subject2_KPNP\preferred\preferred09.trc
DataRate	CameraRate	NumFrames	NumMarkers	Units	OrigDataRate	OrigDataStartFrame	OrigNumFrames
200.0	200.0	21	10	mm	200.0	292	221	
Frame#	Time	Left_Ankle_Outer1			Left_Ankle_Inner1			Left_Knee_Outer1			Left_Knee_Inner1			Left_Wrist1			Right_Wrist1			Right_Knee_Inner1			Right_Knee_Outer1			Right_Ankle_Inner1			Right_Ankle_Outer1			
		X1	Y1	Z1	X2	Y2	Z2	X3	Y3	Z3	X4	Y4	Z4	X5	Y5	Z5	X6	Y6	Z6	X7	Y7	Z7	X8	Y8	Z8	X9	Y9	Z9	X10	Y10	Z10	
292	1.45	-631.00079	84.348145	-723.13007	-661.00873	84.346207	-678.19513	-462.9274	508.31409	-632.21362	-556.95764	490.50351	-591.66809	-543.73895	911.08374	-795.92255	-852.19806	959.86169	-938.14722	-911.27435	449.31543	-967.24323	-968.55396	503.54968	-1028.6252	-840.79041	137.0107	-1218.1919	-915.61694	165.44421	-1277.7477
293	1.455	-631.00623	84.198257	-723.17047	-661.19391	84.178452	-678.06067	-461.76959	507.71432	-631.24182	-554.9234	490.18619	-589.68475	-540.28925	912.69135	-792.62744	-849.79218	959.40656	-929.52039	-917.05829	451.01379	-950.46344	-974.60321	504.42593	-1015.9406	-842.5116	142.82153	-1213.012	-916.97455	171.72209	-1272.8035
294	1.46	-630.97882	83.97068	-723.28864	-661.90582	83.357483	-678.91815	-460.24411	506.84393	-630.54034	-552.61224	488.41638	-589.25592	-536.54657	914.5174	-789.745	-848.03125	960.96686	-923.1532	-925.40857	455.32458	-935.48724	-979.96307	508.51965	-1008.262	-844.47028	148.99417	-1207.0032	-918.62115	178.642	-1266.9808
295	1.465	-630.84656	83.822044	-723.37366	-661.12903	83.924164	-678.22028	-458.46033	505.80377	-630.01117	-550.48529	487.45917	-586.63611	-532.6825	916.4906	-786.89948	-844.85571	962.3927	-916.33899	-931.55286	459.15646	-918.74463	-985.77887	511.36453	-996.3634	-846.97351	155.49367	-1200.3152	-920.58575	185.73225	-1260.4026
296	1.47	-630.56262	83.821091	-723.37274	-660.12335	86.530693	-671.9624	-456.55167	504.70151	-629.396	-548.42249	487.33209	-582.31744	-528.7373	918.61572	-784.10315	-842.23096	963.63452	-909.15723	-935.37543	461.06375	-907.39667	-991.02136	513.75372	-982.21301	-849.54498	162.55455	-1192.5951	-922.7536	193.32098	-1253.191
297	1.475	-630.26532	83.79393	-723.36987	-660.67157	83.904091	-678.55389	-454.60519	503.59512	-628.70898	-545.30334	485.0882	-585.48633	-524.9068	920.96887	-781.25043	-839.86359	965.5473	-902.99603	-942.88776	464.7916	-898.03949	-996.24652	518.23065	-973.47913	-852.4223	169.17921	-1185.125	-925.04041	201.60611	-1245.4039
298	1.48	-629.87201	83.738487	-723.50116	-659.74628	84.051857	-679.07623	-452.67136	502.47812	-627.86554	-543.20355	484.3147	-584.66589	-520.82269	923.15149	-778.755	-837.39093	967.29437	-896.17902	-947.28699	463.55789	-896.79999	-1001.5025	521.58405	-958.66681	-855.29633	176.36584	-1176.916	-927.4837	210.36627	-1237.01
299	1.485	-629.44122	83.690941	-723.69031	-659.33398	84.078949	-679.20111	-450.66162	501.392	-626.9809	-541.01965	484.56619	-583.38184	-516.69897	925.4397	-776.1684	-834.776	969.09399	-887.99182	-953.65778	467.61255	-883.00488	-1004.9925	526.66656	-946.43042	-858.30145	183.97929	-1168.1168	-930.0603	219.54866	-1227.9441
300	1.49	-629.0401	83.609657	-723.97418	-659.17358	84.20668	-679.38293	-448.65082	500.45078	-626.19409	-539.42108	483.36404	-584.09961	-512.60376	927.72314	-773.85028	-832.12067	970.93866	-881.40228	-960.08569	471.84894	-870.09229	-1009.5513	529.88043	-930.62573	-861.46979	191.78883	-1158.8058	-932.76428	229.0687	-1218.2158
301	1.495	-628.68597	83.66259	-724.22455	-658.62695	86.853493	-673.02222	-446.51172	499.5773	-625.59698	-537.66113	483.67972	-583.11572	-508.48962	930.22021	-771.57599	-829.50061	972.80243	-874.89447	-965.44843	481.64832	-826.90979	-1013.2692	533.86646	-914.49628	-864.28687	199.89491	-1148.7715	-935.36395	238.89801	-1207.8071
302	1.5	-628.5451	83.506943	-724.35181	-658.52118	87.132927	-672.64148	-444.55951	498.72055	-625.3446	-535.68091	483.31229	-583.8161	-503.97034	932.83228	-769.59167	-826.75818	974.95081	-868.71045	-969.29474	486.3671	-809.86169	-1015.9849	539.14044	-899.87512	-866.9942	208.20152	-1138.1691	-937.7561	248.74931	-1196.7555
303	1.505	-628.41943	83.495293	-724.49121	-657.80554	85.747826	-676.9809	-442.49438	497.93423	-625.53473	-533.80908	482.53693	-584.98456	-499.6337	935.25757	-767.60205	-824.04742	977.06671	-861.5011	-970.40411	484.72134	-822.08386	-1018.744	544.01422	-884.11517	-870.54822	216.67038	-1126.939	-939.92755	259.00909	-1185.297
304	1.51	-628.40411	83.362114	-724.54462	-658.79254	84.547005	-679.28821	-440.80258	496.91843	-626.54376	-531.64429	482.81589	-584.46582	-495.16675	937.95374	-765.47418	-821.60553	978.97516	-852.65424	-973.34631	495.7059	-778.5274	-1021.613	547.87256	-866.36395	-871.96643	225.65369	-1115.4739	-941.69324	269.67264	-1173.5179
305	1.515	-628.27612	83.295265	-724.646	-658.70355	84.57473	-679.33344	-438.62332	496.142	-627.90094	-529.16559	482.5137	-585.19153	-490.0567	940.39166	-764.48016	-818.98785	981.03363	-845.26367	-972.59265	493.59116	-786.60712	-1022.808	552.85248	-849.39062	-875.3562	234.96863	-1103.8547	-943.22815	280.87842	-1161.4637
306	1.52	-628.19586	83.169594	-724.75739	-658.44458	84.704201	-679.32141	-436.81433	495.21979	-629.89886	-526.4538	482.21298	-585.97552	-486.61005	942.5481	-763.41913	-816.48346	983.32275	-837.09552	-975.46399	505.66357	-744.245	-1024.2616	557.73529	-831.32086	-877.04047	245.28813	-1092.4163	-944.54565	292.84534	-1148.9863
307	1.525	-628.06226	83.051445	-724.9682	-658.2113	84.734032	-679.60315	-435.09113	494.39758	-632.44183	-523.53149	481.97214	-587.05042	-481.03702	944.8847	-762.44507	-813.64136	985.84784	-829.92542	-973.73029	503.228	-752.38202	-1025.7297	563.09515	-813.83716	-877.8855	256.82022	-1080.8392	-945.64923	305.36774	-1136.3752
308	1.53	-627.78546	83.019005	-725.26776	-657.97003	84.889313	-679.91284	-433.38297	493.71762	-635.16595	-520.51263	481.70377	-588.2724	-476.70978	946.97235	-762.34766	-810.98694	988.39929	-820.10193	-973.96136	516.45337	-711.46545	-1026.5798	567.987	-794.01733	-877.55347	269.62509	-1068.8926	-946.34961	317.92542	-1123.2314
309	1.535	-627.63098	82.938522	-725.46472	-657.617	85.126488	-680.11865	-431.64975	493.27072	-638.11511	-517.6239	481.51581	-589.6524	-471.95547	949.07489	-762.23425	-808.20599	991.04865	-811.48779	-974.22858	519.74219	-694.34235	-1027.8989	572.54889	-772.74762	-876.09845	283.40347	-1056.5798	-946.48792	331.17307	-1109.8939
310	1.54	-627.30432	82.936363	-725.79266	-657.34656	85.264786	-680.68823	-430.32751	492.8075	-641.20587	-514.8493	481.31317	-591.32129	-467.44284	951.03247	-762.87451	-805.06427	994.13806	-802.81305	-972.85217	524.65179	-677.2547	-1026.4889	582.09235	-747.72028	-873.98615	297.5105	-1044.0973	-945.84082	344.85632	-1096.1466
311	1.545	-626.97266	82.862099	-726.11047	-655.94916	88.472427	-673.85059	-428.94397	492.60736	-644.30109	-512.31903	481.20825	-593.20642	-463.01065	952.94354	-763.56067	-801.9505	997.15411	-792.91754	-970.76636	526.05273	-671.80927	-1027.3981	584.96552	-734.38312	-871.03674	311.87161	-1031.5336	-944.54089	358.85336	-1081.942
312	1.55	-626.62231	82.868149	-726.47943	-656.56726	85.851952	-681.2251	-427.72461	492.51373	-647.56604	-510.0925	481.15695	-595.37335	-458.57034	954.82373	-764.79034	-798.51941	1000.449	-782.42273	-965.95099	529.3009	-663.75818	-1026.1616	592.09271	-715.53821	-868.29718	326.35089	-1018.1437	-942.80579	373.50864	-1067.3285
